<svg xmlns="http://www.w3.org/2000/svg" viewBox="0 0 3725.99 2534.08">
    <defs>
        <style>
            .cls-2{fill:#efa19c;opacity:.5}.cls-3{fill:#e5644e}
        </style>
    </defs>
    <g id="Layer_2" data-name="Layer 2">
        <g id="Layer_1-2" data-name="Layer 1">
            <path d="m276 529.24.08 1503H175.61A175.54 175.54 0 0 1 .06 1856.7L0 689.83a175.55 175.55 0 0 1 175.53-175.56h55.2A75.5 75.5 0 0 1 276 529.24" style="fill:#f2b1af;opacity:.2"/>
            <path d="M2922.47 516.28H2653.9v-64.11c0-59 .32-118-.18-177-.14-15.41 3.1-23.43 21.15-23.23 75.23.85 150.49 0 225.72 1.08 7.35.1 20.85 8.58 20.93 13.34 1.3 82.75.94 165.52.95 249.92" class="cls-2"/>
            <path d="M3320.61 517.6h-256.47v-49.27c0-64.21.56-128.42-.25-192.62-.23-18.11 6.37-24 23.9-23.8 71.05.68 142.11.48 213.16.43 13.11 0 23.2 1.05 23.05 18.82-.65 78.76-.36 157.51-.53 236.27 0 2.4-1.3 4.78-2.86 10.17" class="cls-3"/>
            <path d="M2509.68 255.62v260.46h-255.74V255.63ZM627.61 2308.21h-176a175.54 175.54 0 0 1-175.55-175.53L276 413.82a175.54 175.54 0 0 1 175.51-175.55h165.6a75 75 0 0 1 8.94.53q-1 11.69-1.06 23.66l.1 2009.39a263 263 0 0 0 2.52 36.36" class="cls-2"/>
            <path d="M2563.66 2207.63H1789.3v-333.52h774.36ZM2112.07 1741H1347v-333.38h765.09ZM3006.64 1741.19h-754.36V1407h754.35ZM1788.57 1270.69V944.82h775.83v325.87ZM1655.57 1873.72v333.74h-744v-333.74ZM2705.83 1873.34h738.09v334.25h-738.09ZM911 1270.24v-325h744.9v325ZM2705.42 1270.06V945.2h738.44v324.85ZM3140.54 1740.08v-332.84H3444v332.83ZM910.61 1740.72v-333.23h301v333.22Z" class="cls-3"/>
            <path d="M3463.63 0 887.22.13C750.62.14 638 105.19 626.05 238.79q-1 11.69-1.06 23.66l.1 2009.39a263 263 0 0 0 2.52 36.37c17.76 127.47 127.49 225.87 259.73 225.87l2576.41-.13c144.58 0 262.25-117.63 262.24-262.26l-.1-2009.39C3725.88 117.66 3608.21 0 3463.63 0m88.8 2271.7a88.8 88.8 0 0 1-88.69 88.69l-2576.41.13a88.8 88.8 0 0 1-88.68-88.69l-.07-1462.63 2753.78-19Zm-.08-1655-2753.78 19V262.5a88.8 88.8 0 0 1 88.67-88.75l2576.41-.13a88.83 88.83 0 0 1 88.7 88.75Z" style="fill:#e88c80"/>
        </g>
    </g>
</svg>
